#!OML:ASF F:\VICON\USERDATA\INSTALL\rory3\rory3.ASF
:FULLY-SPECIFIED
:DEGREES
34
root 0.09599405674353614 17.888122535294972 20.110471255778144 3.7041658618757456 2.229474266918669 -2.278032431917064
lfemur -11.26386330212226 -3.297694056705299 -25.539219784979483
ltibia 17.45597671877176
lfoot 16.507277297883448 -18.751268784143207
ltoes -16.618740249793454
rfemur -21.78172398495192 0.20168439360109303 23.107670524899888
rtibia 79.0546663351322
rfoot 20.175287032595072 5.203042809763174
rtoes 4.934568584967586
lowerback -8.881784189112644e-10 0.6231769538205243 -3.8056274351673114
upperback -0.13151233632448278 3.3532011597658515 -0.6286386626559759
thorax -6.378312823210187 1.5168158677994295 -1.6593165869261355
lowerneck -18.019600539978462 -4.562423251901866 -2.268047923095662
upperneck 13.242080698953957 -7.067601997467401 3.891601667709854
head 7.469133735342391 -2.7275833076271017 0.8873974038365781
lclavicle -9.962190474710748e-08 -4.315175781989706e-07
lhumerus -58.408225968947505 -5.5649744726345345 93.16816497782445
lradius 105.74904446039243
lwrist 31.4148607704195
lhand -25.83476283273175 2.895047181631373
lfingers nan
lthumb 1.0747258821297192 33.49873891831806
rclavicle -1.3019407922908898e-07 -5.312966407281403e-07
rhumerus -27.958251301773135 12.447347392482659 -97.79504761062894
rradius 104.96511898883003
rwrist -16.164982797966307
rhand -18.971231436450335 -8.881784189112644e-10
rfingers nan
rthumb 7.028857369870368 9.428149393043737
35
root 0.08295057723588847 17.787446932540657 19.951020233334354 3.9140979412207093 1.3582790338154052 -3.4589711022455525
lfemur -15.723859087659282 -5.094026402581729 -23.747258202993482
ltibia 19.961984259456862
lfoot 22.73478097763479 -20.267507320024706
ltoes -13.383536368106586
rfemur -22.78924064601274 0.11022813254182906 24.54983333638027
rtibia 91.16272521262036
rfoot 26.317017342726356 4.229242592005626
rtoes 5.80231888888431
lowerback -8.881784189112644e-10 0.5454222319120505 -2.363118267604685
upperback -0.4579976237103173 3.0964053561258833 -0.6082314877604174
thorax -6.891382354048965 1.3733770521403392 -1.6498372256838467
lowerneck -17.4995288161935 -4.253242978580885 -2.1736077752330982
upperneck 13.054121878169385 -6.987581336838035 3.4209339536318986
head 7.319070589504732 -2.7404288551292915 0.9397084293088513
lclavicle -1.3321061983401072e-07 -4.769084453175206e-07
lhumerus -58.630229743039166 -5.6812298262000125 93.18189306422003
lradius 105.85490858532872
lwrist 31.430901161068352
lhand -25.53973429364222 3.09997161576071
lfingers nan
lthumb 1.4345855049733984 33.68118392577474
rclavicle -2.7189665004843304e-07 -8.331379067393457e-07
rhumerus -27.95796688204563 12.273196588753287 -97.81261678623437
rradius 103.98301443299918
rwrist -17.00369424240123
rhand -18.998655996764935 -8.881784189112644e-10
rfingers nan
rthumb 7.271422193699532 9.686195822458508
36
root 0.04925347353225129 17.60302297937064 19.4097355877632 3.840057291170799 0.37709427522935646 -3.452485220873583
lfemur -17.33660460969902 -4.771803042105316 -23.636026781352907
ltibia 20.61741117443885
lfoot 20.896289773004707 -17.30111803067824
ltoes -12.209642740798675
rfemur -24.318789846214806 -0.6036410486319559 23.94272058108657
rtibia 97.5174871989401
rfoot 24.82698173351029 0.8528291722150598
rtoes 2.086321824879692
lowerback -8.881784189112644e-10 0.4785196399223394 -2.139712066354132
upperback -0.535710163346116 2.1441044781827614 -0.46482270506057577
thorax -7.653379753292898 0.7354381565525843 -1.1178961587879628
lowerneck -17.684576754483672 -4.501318473501391 -2.2048656116900625
upperneck 12.971982209101627 -6.103089386844266 3.641410617822953
head 7.197049785261985 -2.238341025160717 0.9553018361093479
lclavicle 4.337975389674422e-08 -1.7002858607051907e-07
lhumerus -60.73812177271246 -5.021279333337472 92.77112915867325
lradius 106.72050686195894
lwrist 31.97731742715535
lhand -25.128415000875606 3.0978683703999614
lfingers nan
lthumb 1.4293117922995746 33.23374546961429
rclavicle -4.985724421289851e-08 -4.7577691167500205e-07
rhumerus -29.632555680141806 12.122370858855572 -97.82088153331205
rradius 104.13137170998424
rwrist -18.2402789183385
rhand -19.205277524361517 -8.881784189112644e-10
rfingers nan
rthumb 7.346420511757398 9.569780032119988
37
root 0.05747237216896467 17.53562058684656 21.798776908100294 3.870123970357444 0.3506113030854031 -3.791050550528187
lfemur -20.74013324867882 -5.4202783821040175 -24.228448975708048
ltibia 18.98575921200124
lfoot 12.405442663026694 -11.548060822678751
ltoes -14.893498246781986
rfemur -22.524371965545157 -0.8801305343743144 24.36201586979005
rtibia 97.47641717492212
rfoot 17.7490345241976 -5.0503866139869125
rtoes 2.892108491215303
lowerback -8.881784189112644e-10 0.3367280168804846 -1.818515934823822
upperback -0.6973910671319675 0.7424233178665781 -0.14194345693037058
thorax -8.123615954271138 0.06025906784206858 0.04307793101169366
lowerneck -17.662008663703432 -4.570976007125166 -2.3517919254848465
upperneck 12.97282244303512 -4.343031750786922 3.8195605835309814
head 6.8425598987185605 -1.6762197884087087 0.8412689705111579
lclavicle -9.529994858018427e-08 -7.08431814622054e-08
lhumerus -62.46515553015625 -4.434907784769695 92.22586443007748
lradius 107.48135767599723
lwrist 32.2391548396604
lhand -25.627403475560495 3.2381619764601837
lfingers nan
lthumb 0.8180924272619976 33.20873727275711
rclavicle -1.454513754452538e-07 -1.5036578816098556e-07
rhumerus -31.057963616575847 11.72614806102462 -97.82502804303006
rradius 104.49337808398317
rwrist -18.137381261579378
rhand -18.98091448232733 -8.881784189112644e-10
rfingers nan
rthumb 7.07327087281944 9.021465177793775
